<?xml version="1.0" encoding="utf-8"?>
<!-- Generator: Adobe Illustrator 25.4.1, SVG Export Plug-In . SVG Version: 6.00 Build 0)  -->
<svg version="1.1"
	 id="Layer_1" xmlns:cc="http://creativecommons.org/ns#" xmlns:dc="http://purl.org/dc/elements/1.1/" xmlns:rdf="http://www.w3.org/1999/02/22-rdf-syntax-ns#"
	 xmlns="http://www.w3.org/2000/svg" xmlns:xlink="http://www.w3.org/1999/xlink" x="0px" y="0px" viewBox="0 0 512 512"
	 style="enable-background:new 0 0 512 512;" xml:space="preserve">
<style type="text/css">
	.st0{fill:#FB4425;}
</style>
<desc>An IBM spinoff company, descended from IBM IT infrastructure services</desc>
<path class="st0" d="M130.7,249.9V21.4l49.1,1.1l0.4,146.9c0.2,80.7,0.7,147.4,1,148.3c0.3,0.9,4.1-2.7,8.5-8
	c7.7-9.4,60.3-71.8,86.2-102c7.1-8.4,16.5-19.4,20.7-24.6l7.7-9.4l29.8,0c16.4,0,29.8,0.4,29.8,0.9c0,0.8-25.4,30.4-28.5,33.1
	c-0.5,0.5-7.3,8.2-15,17c-32,36.8-36.2,41.6-44.8,51c-13.5,14.7-39.9,46-39.9,47.3c0,0.6,10.6,1.3,23.5,1.6l23.5,0.5l23.8,34.9
	c13.1,19.2,31.5,46.2,40.8,59.8c9.4,13.8,22.2,32.5,28.4,41.7l11.4,16.5l-57.9,0l-30.2-45.2c-16.6-24.9-39.4-59.3-50.5-76L228.2,326
	l-47.3-0.1v152h-49.6L130.7,249.9z"/>
</svg>
